<svg width="217" height="49" viewBox="0 0 217 49" fill="none" xmlns="http://www.w3.org/2000/svg">
<path d="M0.665362 8.01322C0.660122 7.69003 0.718683 7.36908 0.837559 7.06944C0.956435 6.76981 1.1332 6.49762 1.35733 6.26906C1.58147 6.0405 1.84839 5.86025 2.14223 5.73903C2.43607 5.61781 2.75082 5.5581 3.06775 5.56344C3.38557 5.55816 3.70122 5.61777 3.99611 5.73876C4.291 5.85976 4.55917 6.03969 4.78484 6.26797C5.0105 6.49624 5.1891 6.76825 5.31012 7.06798C5.43114 7.36771 5.49213 7.68909 5.48951 8.01322V17.5753C6.24244 16.3202 7.29875 15.2832 8.55729 14.5637C9.81583 13.8442 11.2344 13.4662 12.6773 13.4659C17.637 13.4659 22.3643 17.4172 22.3643 24.6085C22.3643 31.7405 17.5789 35.7708 12.6773 35.7708C11.2802 35.8027 9.89645 35.4886 8.64456 34.8555C7.39268 34.2223 6.31005 33.2891 5.48951 32.1356V33.2222C5.43546 33.8365 5.15796 34.408 4.71158 34.8241C4.2652 35.2403 3.68226 35.4711 3.07743 35.4711C2.4726 35.4711 1.88967 35.2403 1.44329 34.8241C0.99691 34.408 0.719406 33.8365 0.665362 33.2222V8.01322ZM17.5596 24.7665C17.6366 23.8997 17.5389 23.0259 17.2724 22.1989C17.006 21.372 16.5765 20.6094 16.0103 19.958C15.4441 19.3066 14.7532 18.7802 13.9801 18.4112C13.207 18.0422 12.368 17.8384 11.5148 17.8123C10.6582 17.8293 9.81373 18.0228 9.03228 18.3812C8.25082 18.7395 7.54851 19.2553 6.96757 19.8976C6.38662 20.5398 5.93904 21.2952 5.65174 22.1184C5.36444 22.9415 5.24336 23.8154 5.29576 24.6875C5.23241 25.566 5.34535 26.4484 5.62769 27.2809C5.91004 28.1133 6.35585 28.8783 6.9379 29.5292C7.51994 30.18 8.22601 30.703 9.01295 31.0663C9.79989 31.4295 10.6512 31.6253 11.5148 31.6417C12.3645 31.6263 13.2019 31.4324 13.9748 31.072C14.7476 30.7117 15.4393 30.1927 16.0066 29.5475C16.5739 28.9023 17.0046 28.1447 17.2718 27.3221C17.539 26.4995 17.6369 25.6295 17.5596 24.7665Z" fill="black"/>
<path d="M46.1749 33.2217C46.1207 33.8411 45.841 34.4173 45.391 34.837C44.9411 35.2567 44.3533 35.4894 43.7435 35.4894C43.1337 35.4894 42.5459 35.2567 42.096 34.837C41.646 34.4173 41.3663 33.8411 41.3121 33.2217V32.1153C40.6349 33.2794 39.6704 34.2422 38.5146 34.9078C37.3588 35.5733 36.0522 35.9184 34.7249 35.9085C29.9782 35.9085 27.2271 32.6487 27.2271 27.6504V16.2313C27.222 15.9079 27.2797 15.5867 27.3969 15.2862C27.5142 14.9857 27.6886 14.7119 27.9101 14.4804C28.1316 14.249 28.3959 14.0646 28.6877 13.9379C28.9795 13.8111 29.293 13.7446 29.6101 13.742C29.9314 13.7394 30.25 13.8019 30.5474 13.9261C30.8447 14.0503 31.1148 14.2335 31.342 14.4652C31.5692 14.6969 31.7489 14.9724 31.8707 15.2756C31.9925 15.5788 32.0538 15.9036 32.0513 16.2313V26.1094C32.0513 29.4482 33.6787 31.3251 36.5654 31.3251C37.2326 31.3439 37.8959 31.2161 38.5103 30.9503C39.1247 30.6845 39.6758 30.2869 40.1261 29.7846C40.5764 29.2823 40.9154 28.687 41.1201 28.0392C41.3247 27.3914 41.3902 26.7063 41.3121 26.0304V16.1523C41.3095 15.8263 41.3703 15.503 41.4908 15.2011C41.6114 14.8992 41.7894 14.6247 42.0145 14.3932C42.2396 14.1618 42.5075 13.9782 42.8026 13.8528C43.0976 13.7275 43.4142 13.663 43.7338 13.663C44.0603 13.6655 44.3829 13.7342 44.6831 13.8652C44.9832 13.9961 45.2547 14.1867 45.4819 14.4257C45.7091 14.6647 45.8874 14.9475 46.0064 15.2575C46.1254 15.5675 46.1827 15.8985 46.1749 16.2313V33.2217Z" fill="black"/>
<path d="M52.6845 41.5002C52.2558 41.3839 51.8762 41.1279 51.6034 40.7713C51.3305 40.4146 51.1795 39.9768 51.1733 39.5245C51.1733 39.0006 51.3774 38.4981 51.7408 38.1276C52.1041 37.7571 52.5969 37.5489 53.1107 37.5489C53.4082 37.5487 53.7034 37.6022 53.9826 37.707C54.5265 37.892 55.0948 37.9919 55.6681 38.0033C57.1018 38.0033 57.8574 37.3909 58.6517 35.7116L58.8067 35.2769L51.0571 17.4963C50.8836 17.1319 50.7847 16.7353 50.7665 16.3307C50.761 16.0093 50.8198 15.6901 50.9391 15.3925C51.0584 15.095 51.2358 14.8253 51.4605 14.5999C51.6852 14.3744 51.9525 14.1979 52.2462 14.0811C52.5399 13.9643 52.8538 13.9096 53.1688 13.9204C53.7231 13.9234 54.2593 14.1217 54.6866 14.4818C55.1138 14.8419 55.4058 15.3415 55.5131 15.896L61.1897 30.1798L66.4594 15.896C66.5718 15.3513 66.8599 14.8606 67.2779 14.5025C67.6958 14.1444 68.2194 13.9394 68.765 13.9204C69.0668 13.9152 69.3667 13.971 69.6473 14.0845C69.9278 14.1981 70.1836 14.3672 70.3997 14.5821C70.6159 14.797 70.7882 15.0535 70.9066 15.3366C71.0251 15.6198 71.0873 15.9241 71.0898 16.2319C71.0822 16.6362 71.0102 17.0365 70.8767 17.4173L63.1271 36.2648C61.3253 40.6506 59.4073 42.2904 56.0168 42.2904C54.8647 42.2621 53.7306 41.9931 52.6845 41.5002Z" fill="black"/>
<path d="M179.252 0.997031L85.7865 3.52711C82.8879 3.60558 80.6029 6.06535 80.683 9.02118L81.6126 43.3647C81.6927 46.3206 84.1073 48.6531 87.006 48.5747L180.471 46.0446C183.37 45.9661 185.655 43.5063 185.575 40.5505L184.645 6.20694C184.565 3.25112 182.15 0.918565 179.252 0.997031Z" fill="#338A3E"/>
<path d="M86.2857 34.8588C85.9925 34.6877 85.7482 34.4414 85.577 34.1445C85.4058 33.8475 85.3136 33.5101 85.3096 33.1658C85.2954 32.6421 85.4859 32.1342 85.839 31.754C86.1922 31.3738 86.6792 31.1524 87.1928 31.1385C87.5604 31.137 87.9226 31.2291 88.2467 31.4064C90.0691 32.6046 92.1947 33.234 94.362 33.2172C96.4343 33.1611 97.611 32.2399 97.5719 30.7983C97.527 29.1393 95.265 28.6274 92.7845 27.9238C89.6424 27.1195 86.1404 25.9099 86.0292 21.8021L86.0265 21.7034C85.9164 17.6351 89.1613 15.0768 93.3446 14.9635C95.657 14.9389 97.9429 15.4731 100.015 16.5222C100.365 16.6849 100.664 16.9436 100.878 17.2694C101.092 17.5951 101.213 17.9751 101.228 18.3669C101.242 18.8906 101.052 19.3985 100.698 19.7787C100.345 20.1589 99.8583 20.3803 99.3447 20.3942C99.0074 20.4117 98.6714 20.3391 98.3699 20.1834C96.8329 19.355 95.129 18.9006 93.3918 18.8557C91.4551 18.9081 90.4527 19.8246 90.4859 21.049C90.5286 22.6289 92.8316 23.2188 95.3325 23.9614C98.4192 24.866 101.924 26.1941 102.029 30.0649C102.151 34.5677 98.784 36.9119 94.4652 37.0288C91.5885 37.1522 88.7402 36.3966 86.2857 34.8588Z" fill="white"/>
<path d="M106.604 17.2134C106.565 16.8728 106.595 16.5276 106.694 16.2C106.793 15.8723 106.957 15.5692 107.177 15.3101C107.397 15.051 107.668 14.8415 107.972 14.6949C108.276 14.5484 108.606 14.468 108.942 14.4589C109.278 14.4498 109.613 14.5122 109.924 14.6421C110.235 14.772 110.517 14.9665 110.751 15.2134C110.984 15.4602 111.165 15.7539 111.281 16.0758C111.398 16.3976 111.447 16.7406 111.426 17.0828L111.453 18.09C112.094 16.9456 113.013 15.9888 114.121 15.3115C115.23 14.6343 116.491 14.2594 117.783 14.2229C119.079 14.1247 120.376 14.4129 121.515 15.0522C122.654 15.6916 123.586 16.6546 124.199 17.8241C124.953 16.623 125.988 15.632 127.21 14.94C128.433 14.248 129.806 13.8768 131.205 13.8596C135.795 13.7353 138.664 16.6222 138.806 21.8754L139.116 33.3496C139.133 33.6706 139.086 33.9917 138.977 34.2932C138.868 34.5948 138.7 34.8706 138.484 35.1038C138.267 35.3371 138.006 35.5229 137.716 35.65C137.427 35.7771 137.115 35.8429 136.8 35.8433C136.483 35.8598 136.165 35.8113 135.866 35.7008C135.567 35.5903 135.293 35.4199 135.059 35.1997C134.826 34.9795 134.638 34.7139 134.506 34.4186C134.375 34.1233 134.303 33.8042 134.294 33.4802L134.024 23.5069C133.932 20.0903 132.333 18.2956 129.621 18.369C126.91 18.4424 125.159 20.3673 125.253 23.8234L125.52 33.6979C125.483 34.3135 125.221 34.8922 124.786 35.3203C124.351 35.7484 123.775 35.9949 123.17 36.0112C122.565 36.0276 121.976 35.8127 121.519 35.4087C121.061 35.0048 120.769 34.4411 120.698 33.8285L120.427 23.8354C120.337 20.4979 118.679 18.6652 116.006 18.7376C113.334 18.8099 111.547 20.8346 111.638 24.192L111.905 34.0665C111.868 34.682 111.606 35.2607 111.171 35.6888C110.736 36.1169 110.16 36.3634 109.555 36.3798C108.95 36.3962 108.361 36.1812 107.904 35.7773C107.446 35.3733 107.154 34.8096 107.083 34.197L106.604 17.2134Z" fill="white"/>
<path d="M145.872 29.4514L145.567 18.155L144.773 18.1764C144.254 18.1395 143.767 17.9068 143.407 17.5238C143.046 17.1407 142.839 16.6348 142.825 16.1046C142.81 15.5744 142.99 15.058 143.329 14.656C143.668 14.2541 144.141 13.9954 144.658 13.9304L145.452 13.9089L145.353 10.2553C145.335 9.60061 145.573 8.9658 146.015 8.49056C146.456 8.01531 147.065 7.73855 147.707 7.72117C148.349 7.70379 148.972 7.94721 149.438 8.39788C149.905 8.84855 150.177 9.46955 150.195 10.1243L150.293 13.7778L154.07 13.6756C154.359 13.6392 154.653 13.6649 154.933 13.7511C155.212 13.8373 155.471 13.9821 155.692 14.1761C155.913 14.3702 156.092 14.6093 156.218 14.878C156.343 15.1467 156.412 15.4392 156.42 15.7366C156.428 16.034 156.375 16.3297 156.264 16.6048C156.154 16.8799 155.988 17.1284 155.777 17.3341C155.567 17.5399 155.316 17.6985 155.042 17.7996C154.768 17.9008 154.476 17.9424 154.185 17.9217L150.408 18.0239L150.693 28.5501C150.645 28.9126 150.681 29.2817 150.798 29.6276C150.915 29.9735 151.111 30.2865 151.369 30.5412C151.627 30.796 151.94 30.9853 152.282 31.0938C152.625 31.2024 152.988 31.2272 153.342 31.1663C153.743 31.1371 154.143 31.0867 154.539 31.0153C154.801 30.9948 155.065 31.0288 155.314 31.1154C155.562 31.202 155.791 31.3392 155.987 31.5188C156.182 31.6984 156.339 31.9166 156.449 32.1601C156.559 32.4036 156.619 32.6673 156.626 32.9351C156.637 33.3557 156.527 33.7701 156.309 34.1272C156.092 34.4843 155.776 34.7685 155.402 34.9446C154.349 35.3573 153.233 35.5814 152.105 35.607C148.561 35.7029 146 34.1517 145.872 29.4514Z" fill="white"/>
<path d="M160.707 7.5272C160.693 7.20596 160.742 6.8852 160.851 6.58382C160.961 6.28243 161.129 6.00651 161.344 5.7723C161.56 5.53809 161.82 5.35033 162.108 5.22007C162.396 5.08981 162.707 5.01969 163.022 5.01384C163.34 5.00263 163.657 5.05537 163.955 5.16905C164.253 5.28274 164.526 5.45513 164.759 5.6764C164.992 5.89767 165.18 6.16348 165.312 6.45864C165.444 6.7538 165.518 7.07254 165.529 7.39666L165.78 16.659C166.436 15.4904 167.378 14.5157 168.514 13.8302C169.651 13.1447 170.943 12.7719 172.263 12.7481C177.008 12.6197 179.846 15.7841 179.981 20.7609L180.291 32.235C180.254 32.8506 179.992 33.4293 179.557 33.8574C179.122 34.2855 178.546 34.532 177.941 34.5484C177.336 34.5647 176.747 34.3498 176.29 33.9459C175.832 33.5419 175.54 32.9782 175.469 32.3656L175.199 22.3923C175.109 19.0547 173.411 17.1836 170.544 17.2612C169.875 17.2663 169.215 17.4173 168.608 17.7042C168.001 17.9911 167.462 18.4071 167.026 18.9244C166.59 19.4417 166.268 20.0482 166.082 20.7032C165.895 21.3582 165.848 22.0465 165.944 22.7219L166.211 32.5964C166.22 32.9205 166.165 33.243 166.05 33.545C165.935 33.847 165.761 34.1223 165.54 34.3548C165.319 34.5873 165.054 34.7723 164.761 34.8988C164.469 35.0254 164.154 35.0909 163.837 35.0916C163.523 35.1027 163.21 35.0501 162.917 34.9368C162.624 34.8235 162.355 34.6519 162.127 34.4318C161.899 34.2117 161.717 33.9476 161.59 33.6549C161.463 33.3622 161.395 33.0468 161.389 32.727L160.707 7.5272Z" fill="white"/>
<path d="M202.906 28.8462C202.393 28.7772 201.924 28.513 201.593 28.1063C201.262 27.6996 201.095 27.1806 201.124 26.6532V22.4451C201.096 22.1537 201.133 21.8597 201.23 21.5843C201.328 21.309 201.485 21.0593 201.689 20.8532C201.893 20.6471 202.139 20.4898 202.41 20.3927C202.681 20.2956 202.969 20.2611 203.255 20.2917C207.75 20.43 210.404 19.0273 210.791 15.9848C211.121 13.2782 209.338 11.1446 205.928 10.7099C203.537 10.3869 201.117 11.0323 199.186 12.5077C198.644 12.8575 198.005 13.017 197.365 12.9621C196.675 12.8454 196.057 12.4573 195.644 11.8811C195.231 11.3048 195.056 10.5864 195.156 9.88016C195.206 9.48001 195.341 9.09584 195.552 8.75456C195.763 8.41328 196.045 8.12316 196.377 7.90453C197.854 6.78524 199.534 5.97509 201.32 5.52073C203.105 5.06638 204.961 4.97681 206.781 5.25719C213.388 6.10671 217.398 10.4531 216.642 16.459C215.867 22.5242 211.237 24.6974 205.89 24.9344L205.405 27.1471C205.283 27.6534 204.987 28.0986 204.572 28.4027C204.156 28.7069 203.648 28.8501 203.139 28.8067L202.906 28.8462Z" fill="black"/>
<path d="M202.422 32.3435C202.858 32.3874 203.281 32.5202 203.667 32.7341C204.052 32.9481 204.391 33.2387 204.664 33.5888C204.936 33.9389 205.138 34.3414 205.255 34.7723C205.372 35.2032 205.404 35.6537 205.347 36.0972V36.5911C205.234 37.4975 204.773 38.3211 204.064 38.8805C203.356 39.44 202.458 39.6895 201.569 39.5743C200.68 39.459 199.873 38.9884 199.324 38.2659C198.775 37.5434 198.531 36.6283 198.644 35.7218V35.2279C198.698 34.7819 198.84 34.3517 199.061 33.963C199.282 33.5743 199.578 33.2351 199.931 32.9658C200.283 32.6965 200.686 32.5025 201.114 32.3956C201.542 32.2887 201.987 32.2709 202.422 32.3435Z" fill="black"/>
</svg>
